<svg width="62" height="149" viewBox="0 0 62 149" fill="none" xmlns="http://www.w3.org/2000/svg">
<rect y="69.7771" width="22" height="7" rx="3.5" transform="rotate(-90 0 69.7771)" fill="#76a887"/>
<rect x="55" y="69.7771" width="22" height="7" rx="3" transform="rotate(-90 55 69.7771)" fill="#76a887"/>
<rect y="39.2101" width="22" height="7" rx="3.5" transform="rotate(-90 0 39.2101)" fill="#76a887"/>
<rect x="55" y="39.2101" width="22" height="7" rx="3" transform="rotate(-90 55 39.2101)" fill="#76a887"/>
<rect x="41.7664" y="101" width="22" height="7" rx="3.5" transform="rotate(-180 41.7664 101)" fill="#76a887"/>
<rect x="41.7664" y="7" width="22" height="7" rx="3" transform="rotate(-180 41.7664 7)" fill="#76a887"/>
<rect x="10" y="89.3824" width="79" height="42" transform="rotate(-90 10 89.3824)" fill="#76a887"/>
<rect y="130.777" width="22" height="7" rx="3.5" transform="rotate(-90 0 130.777)" fill="#76a887"/>
<rect x="55" y="130.777" width="22" height="7" rx="3" transform="rotate(-90 55 130.777)" fill="#76a887"/>
<rect y="100.21" width="22" height="7" rx="3.5" transform="rotate(-90 0 100.21)" fill="#76a887"/>
<rect x="55" y="100.21" width="22" height="7" rx="3" transform="rotate(-90 55 100.21)" fill="#76a887"/>
<rect x="41.7664" y="149" width="22" height="6.72277" rx="3.36139" transform="rotate(-180 41.7664 149)" fill="#76a887"/>
<rect x="41.7664" y="62.7228" width="22" height="6.72277" rx="3" transform="rotate(-180 41.7664 62.7228)" fill="#76a887"/>
<rect x="10" y="139" width="76" height="42" transform="rotate(-90 10 139)" fill="#76a887"/>
</svg>
