<svg width="63" height="142" viewBox="0 0 63 142" fill="none" xmlns="http://www.w3.org/2000/svg">
<rect y="80.7771" width="22" height="7" rx="3.5" transform="rotate(-90 0 80.7771)" fill="#76a887"/>
<rect x="56" y="80.7771" width="22" height="7" rx="3" transform="rotate(-90 56 80.7771)" fill="#76a887"/>
<rect y="40.2101" width="22" height="7" rx="3.5" transform="rotate(-90 0 40.2101)" fill="#76a887"/>
<rect x="56" y="40.2101" width="22" height="7" rx="3" transform="rotate(-90 56 40.2101)" fill="#76a887"/>
<rect x="42.7664" y="101" width="22" height="7" rx="3.5" transform="rotate(-180 42.7664 101)" fill="#76a887"/>
<rect x="42.7664" y="7" width="22" height="7" rx="3" transform="rotate(-180 42.7664 7)" fill="#76a887"/>
<rect x="10.5001" y="90.3824" width="79" height="42" transform="rotate(-90 10.5001 90.3824)" fill="#76a887"/>
<rect y="120.777" width="22" height="7" rx="3.5" transform="rotate(-90 0 120.777)" fill="#76a887"/>
<rect x="56" y="120.777" width="22" height="7" rx="3" transform="rotate(-90 56 120.777)" fill="#76a887"/>
<rect y="80.2101" width="22" height="7" rx="3.5" transform="rotate(-90 0 80.2101)" fill="#76a887"/>
<rect x="56" y="80.2101" width="22" height="7" rx="3" transform="rotate(-90 56 80.2101)" fill="#76a887"/>
<rect x="42.7664" y="142" width="22" height="7" rx="3.5" transform="rotate(-180 42.7664 142)" fill="#76a887"/>
<rect x="42.7664" y="48" width="22" height="7" rx="3" transform="rotate(-180 42.7664 48)" fill="#76a887"/>
<rect x="10.5001" y="130.382" width="79" height="42" transform="rotate(-90 10.5001 130.382)" fill="#76a887"/>
</svg>
